<?xml version="1.0" encoding="UTF-8"?>
<svg version="1.1" xmlns="http://www.w3.org/2000/svg" width="285" height="298">
<path d="M0 0 C94.05 0 188.1 0 285 0 C285 98.34 285 196.68 285 298 C190.95 298 96.9 298 0 298 C0 199.66 0 101.32 0 0 Z " fill="#FEFEFE" transform="translate(0,0)"/>
<path d="M0 0 C40.92 0 81.84 0 124 0 C124 98.34 124 196.68 124 298 C78.46 298 32.92 298 -14 298 C-16.84141935 295.15858065 -17.87761461 293.96708537 -18.12304783 290.02226734 C-18.12212604 289.2654753 -18.12120424 288.50868326 -18.12025452 287.72895813 C-18.12162918 286.85817627 -18.12300385 285.98739441 -18.12442017 285.09022522 C-18.12082489 284.13788498 -18.11722961 283.18554474 -18.11352539 282.2043457 C-18.11367142 281.19928986 -18.11381744 280.19423401 -18.1139679 279.15872192 C-18.11327029 275.83105321 -18.10548494 272.50344021 -18.09765625 269.17578125 C-18.09579153 266.8707838 -18.09436788 264.56578595 -18.09336853 262.26078796 C-18.08954759 256.18955392 -18.07972089 250.11834374 -18.06866455 244.04711914 C-18.05844135 237.85368167 -18.05386896 231.66024035 -18.04882812 225.46679688 C-18.03809827 213.31118742 -18.0210269 201.15559569 -18 189 C-16.97519531 188.93941406 -15.95039063 188.87882813 -14.89453125 188.81640625 C-13.53384305 188.73194974 -12.17316657 188.64730433 -10.8125 188.5625 C-10.13896484 188.52318359 -9.46542969 188.48386719 -8.77148438 188.44335938 C-5.10300898 188.21072435 -1.58305794 187.82792989 2 187 C2.99562483 182.85604632 3.13065934 178.96876398 3.14044189 174.71276855 C3.14341302 173.98923549 3.14638414 173.26570243 3.1494453 172.52024412 C3.15810112 170.1013749 3.15963787 167.68255534 3.16113281 165.26367188 C3.16576303 163.5272257 3.17078797 161.79078053 3.17617798 160.05433655 C3.18928049 155.34163767 3.19574222 150.62895302 3.20018864 145.91623878 C3.20312158 142.97218764 3.20722671 140.02814038 3.21169281 137.08409119 C3.2253593 127.87316866 3.23503129 118.662255 3.2388947 109.45132303 C3.24337977 98.81705192 3.260952 88.18290907 3.2898953 77.54867697 C3.31149452 69.32775658 3.32159797 61.10687233 3.32293582 52.88592386 C3.3239847 47.97573316 3.32991064 43.06566317 3.34775543 38.15550232 C3.36420668 33.53931287 3.36640601 28.92333528 3.35761642 24.307127 C3.35684459 22.61280691 3.36120804 20.91847557 3.37107468 19.22418404 C3.38375268 16.91161293 3.37794058 14.59979703 3.36749268 12.28723145 C3.36969252 10.34599773 3.36969252 10.34599773 3.3719368 8.36554718 C3.18360079 4.51797248 3.18360079 4.51797248 0 0 Z " fill="#FEFEFE" transform="translate(161,0)"/>
<path d="M0 0 C9.31844634 -0.11584226 18.63664491 -0.20468854 27.95565414 -0.25906086 C32.28286925 -0.28515685 36.60959182 -0.32055402 40.93652344 -0.37719727 C45.11219371 -0.43151838 49.28739021 -0.46142052 53.46338654 -0.47438622 C55.05665802 -0.48362606 56.64990351 -0.50166978 58.24297333 -0.52865028 C60.47472684 -0.56494492 62.70452236 -0.56994562 64.93652344 -0.56762695 C66.20671326 -0.57873001 67.47690308 -0.58983307 68.7855835 -0.60127258 C72 -0 72 -0 74.16999626 2.08212757 C76.4665358 5.74387386 76.49810248 7.98005496 76.49447632 12.28723145 C76.49930515 13.01076451 76.50413398 13.73429757 76.50910914 14.47975588 C76.52036153 16.89898305 76.50307605 19.31714878 76.48583984 21.73632812 C76.48798618 23.47277614 76.49186459 25.20922276 76.49734497 26.94566345 C76.50703703 31.65850429 76.49173666 36.37096619 76.47143888 41.08376122 C76.45386792 46.01551251 76.45739298 50.9472521 76.4581604 55.87902832 C76.45628745 64.16111591 76.43892449 72.44305692 76.41162109 80.72509766 C76.38017038 90.30054365 76.36962492 99.87582912 76.3710922 109.45132303 C76.37231301 118.66226841 76.36209981 127.87316151 76.34550858 137.08409119 C76.33844759 141.00423083 76.33478275 144.92435198 76.33372116 148.84449768 C76.33171169 153.46068251 76.31949717 158.07673264 76.29938889 162.692873 C76.29354861 164.38717893 76.29108619 166.08150036 76.29224396 167.77581596 C76.29322614 170.08827657 76.28190695 172.40036047 76.26742554 174.71276855 C76.26407385 176.00692436 76.26072216 177.30108017 76.25726891 178.63445282 C76.00787383 181.89699588 75.51500981 184.11590273 74 187 C69.97338675 189.4586633 65.7663427 189.23892336 61.1875 189.125 C60.49462891 189.11597656 59.80175781 189.10695312 59.08789062 189.09765625 C57.39177605 189.07426157 55.69584129 189.03839641 54 189 C54.10750885 202.34322977 54.22014391 215.68640545 54.33933926 229.02953625 C54.39452386 235.22515787 54.4479368 241.42078424 54.49731445 247.61645508 C54.54502372 253.59463411 54.59736902 259.57275615 54.65294075 265.55086708 C54.67333454 267.83262019 54.69205251 270.11438891 54.70907402 272.39616966 C54.73318381 275.5899355 54.76322956 278.7835941 54.79467773 281.97729492 C54.8004332 282.92244461 54.80618866 283.8675943 54.81211853 284.84138489 C54.80337206 290.99824716 54.80337206 290.99824716 56 297 C56.66 297.33 57.32 297.66 58 298 C48.66421561 298.06946198 39.32851996 298.12279178 29.99253368 298.15543652 C25.65760875 298.17110311 21.3228604 298.19235934 16.98803711 298.22631836 C12.80591912 298.25887664 8.62397115 298.27684553 4.44173622 298.28463173 C2.84489578 298.29018162 1.24806481 298.30101906 -0.34870338 298.31719017 C-2.58269094 298.33891808 -4.81597288 298.34196896 -7.05004883 298.34057617 C-8.32245926 298.34723801 -9.59486969 298.35389984 -10.90583801 298.36076355 C-14 298 -14 298 -15.87187195 296.66621399 C-17.85764666 293.73327956 -18.12443511 291.16122273 -18.12025452 287.72895813 C-18.12162918 286.85817627 -18.12300385 285.98739441 -18.12442017 285.09022522 C-18.12082489 284.13788498 -18.11722961 283.18554474 -18.11352539 282.2043457 C-18.11367142 281.19928986 -18.11381744 280.19423401 -18.1139679 279.15872192 C-18.11327029 275.83105321 -18.10548494 272.50344021 -18.09765625 269.17578125 C-18.09579153 266.8707838 -18.09436788 264.56578595 -18.09336853 262.26078796 C-18.08954759 256.18955392 -18.07972089 250.11834374 -18.06866455 244.04711914 C-18.05844135 237.85368167 -18.05386896 231.66024035 -18.04882812 225.46679688 C-18.03809827 213.31118742 -18.0210269 201.15559569 -18 189 C-16.97519531 188.93941406 -15.95039062 188.87882813 -14.89453125 188.81640625 C-13.53384305 188.73194974 -12.17316657 188.64730433 -10.8125 188.5625 C-10.13896484 188.52318359 -9.46542969 188.48386719 -8.77148438 188.44335938 C-5.10300898 188.21072435 -1.58305794 187.82792989 2 187 C2.99562483 182.85604632 3.13065934 178.96876398 3.14044189 174.71276855 C3.14341302 173.98923549 3.14638414 173.26570243 3.1494453 172.52024412 C3.15810112 170.1013749 3.15963787 167.68255534 3.16113281 165.26367188 C3.16576303 163.5272257 3.17078797 161.79078053 3.17617798 160.05433655 C3.18928049 155.34163767 3.19574222 150.62895302 3.20018864 145.91623878 C3.20312158 142.97218764 3.20722671 140.02814038 3.21169281 137.08409119 C3.2253593 127.87316866 3.23503129 118.662255 3.2388947 109.45132303 C3.24337977 98.81705192 3.260952 88.18290907 3.2898953 77.54867697 C3.31149452 69.32775658 3.32159797 61.10687233 3.32293582 52.88592386 C3.3239847 47.97573316 3.32991064 43.06566317 3.34775543 38.15550232 C3.36420668 33.53931287 3.36640601 28.92333528 3.35761642 24.307127 C3.35684459 22.61280691 3.36120804 20.91847557 3.37107468 19.22418404 C3.38375268 16.91161293 3.37794058 14.59979703 3.36749268 12.28723145 C3.36969252 10.34599773 3.36969252 10.34599773 3.3719368 8.36554718 C2.9769281 4.79122909 2.08603654 2.88754932 0 0 Z " fill="#FEFEFE" transform="translate(89,0)"/>
<path d="M0 0 C17.16 0 34.32 0 52 0 C52 98.34 52 196.68 52 298 C30.22 298 8.44 298 -14 298 C-16.84141935 295.15858065 -17.87761461 293.96708537 -18.12304783 290.02226734 C-18.12212604 289.2654753 -18.12120424 288.50868326 -18.12025452 287.72895813 C-18.12162918 286.85817627 -18.12300385 285.98739441 -18.12442017 285.09022522 C-18.12082489 284.13788498 -18.11722961 283.18554474 -18.11352539 282.2043457 C-18.11367142 281.19928986 -18.11381744 280.19423401 -18.1139679 279.15872192 C-18.11327029 275.83105321 -18.10548494 272.50344021 -18.09765625 269.17578125 C-18.09579153 266.8707838 -18.09436788 264.56578595 -18.09336853 262.26078796 C-18.08954759 256.18955392 -18.07972089 250.11834374 -18.06866455 244.04711914 C-18.05844135 237.85368167 -18.05386896 231.66024035 -18.04882812 225.46679688 C-18.03809827 213.31118742 -18.0210269 201.15559569 -18 189 C-16.97519531 188.93941406 -15.95039063 188.87882813 -14.89453125 188.81640625 C-13.53384305 188.73194974 -12.17316657 188.64730433 -10.8125 188.5625 C-10.13896484 188.52318359 -9.46542969 188.48386719 -8.77148438 188.44335938 C-5.10300898 188.21072435 -1.58305794 187.82792989 2 187 C2.99562483 182.85604632 3.13065934 178.96876398 3.14044189 174.71276855 C3.14341302 173.98923549 3.14638414 173.26570243 3.1494453 172.52024412 C3.15810112 170.1013749 3.15963787 167.68255534 3.16113281 165.26367188 C3.16576303 163.5272257 3.17078797 161.79078053 3.17617798 160.05433655 C3.18928049 155.34163767 3.19574222 150.62895302 3.20018864 145.91623878 C3.20312158 142.97218764 3.20722671 140.02814038 3.21169281 137.08409119 C3.2253593 127.87316866 3.23503129 118.662255 3.2388947 109.45132303 C3.24337977 98.81705192 3.260952 88.18290907 3.2898953 77.54867697 C3.31149452 69.32775658 3.32159797 61.10687233 3.32293582 52.88592386 C3.3239847 47.97573316 3.32991064 43.06566317 3.34775543 38.15550232 C3.36420668 33.53931287 3.36640601 28.92333528 3.35761642 24.307127 C3.35684459 22.61280691 3.36120804 20.91847557 3.37107468 19.22418404 C3.38375268 16.91161293 3.37794058 14.59979703 3.36749268 12.28723145 C3.36969252 10.34599773 3.36969252 10.34599773 3.3719368 8.36554718 C3.18360079 4.51797248 3.18360079 4.51797248 0 0 Z " fill="#FEFEFE" transform="translate(233,0)"/>
<path d="M0 0 C0.82830322 -0.00478363 1.65660645 -0.00956726 2.51000977 -0.01449585 C4.25832014 -0.01789283 6.0066942 -0.00870432 7.75488281 0.01220703 C10.42917664 0.03897918 13.09927402 0.01245635 15.7734375 -0.01953125 C17.47396759 -0.01622711 19.17449506 -0.00982078 20.875 0 C21.67301025 -0.01012115 22.47102051 -0.02024231 23.29321289 -0.03067017 C26.94656096 0.04635173 28.94301018 0.19786727 31.64902687 2.74904633 C33.89295574 6.40640569 33.93557771 8.67354493 33.93197632 12.95129395 C33.93680515 13.67482701 33.94163398 14.39836007 33.94660914 15.14381838 C33.95786153 17.56304555 33.94057605 19.98121128 33.92333984 22.40039062 C33.92548618 24.13683864 33.92936459 25.87328526 33.93484497 27.60972595 C33.94453703 32.32256679 33.92923666 37.03502869 33.90893888 41.74782372 C33.89136792 46.67957501 33.89489298 51.6113146 33.8956604 56.54309082 C33.89378745 64.82517841 33.87642449 73.10711942 33.84912109 81.38916016 C33.81767038 90.96460615 33.80712492 100.53989162 33.8085922 110.11538553 C33.80981301 119.32633091 33.79959981 128.53722401 33.78300858 137.74815369 C33.77594759 141.66829333 33.77228275 145.58841448 33.77122116 149.50856018 C33.76921169 154.12474501 33.75699717 158.74079514 33.73688889 163.3569355 C33.73104861 165.05124143 33.72858619 166.74556286 33.72974396 168.43987846 C33.73072614 170.75233907 33.71940695 173.06442297 33.70492554 175.37683105 C33.70157385 176.67098686 33.69822216 177.96514267 33.69476891 179.29851532 C33.44537383 182.56105838 32.95250981 184.77996523 31.4375 187.6640625 C27.41088675 190.1227258 23.2038427 189.90298586 18.625 189.7890625 C17.93212891 189.78003906 17.23925781 189.77101562 16.52539062 189.76171875 C14.82927605 189.73832407 13.13334129 189.70245891 11.4375 189.6640625 C11.54500885 203.00729227 11.65764391 216.35046795 11.77683926 229.69359875 C11.83202386 235.88922037 11.8854368 242.08484674 11.93481445 248.28051758 C11.98252372 254.25869661 12.03486902 260.23681865 12.09044075 266.21492958 C12.11083454 268.49668269 12.12955251 270.77845141 12.14657402 273.06023216 C12.17068381 276.253998 12.20072956 279.4476566 12.23217773 282.64135742 C12.24081093 284.05908195 12.24081093 284.05908195 12.24961853 285.50544739 C12.24087206 291.66230966 12.24087206 291.66230966 13.4375 297.6640625 C14.0975 297.9940625 14.7575 298.3240625 15.4375 298.6640625 C12.1375 298.6640625 8.8375 298.6640625 5.4375 298.6640625 C6.0975 298.3340625 6.7575 298.0040625 7.4375 297.6640625 C8.95878123 292.85275797 8.61240073 287.63711626 8.64282227 282.64135742 C8.65272186 281.63600952 8.66262146 280.63066162 8.67282104 279.59484863 C8.70436065 276.27809997 8.72916371 272.961337 8.75390625 269.64453125 C8.77448228 267.34238822 8.79547893 265.04024892 8.81687927 262.7381134 C8.87203285 256.68339048 8.92147176 250.62863385 8.96972656 244.57385254 C9.0199906 238.3936056 9.07565107 232.21340753 9.13085938 226.03320312 C9.23835884 213.91019802 9.33982206 201.78715044 9.4375 189.6640625 C8.41269531 189.68726563 7.38789063 189.71046875 6.33203125 189.734375 C4.97136149 189.75314286 3.6106838 189.77134197 2.25 189.7890625 C1.57646484 189.80582031 0.90292969 189.82257813 0.20898438 189.83984375 C-3.81294366 189.87908207 -7.0876651 189.78580812 -10.5625 187.6640625 C-12.71939359 183.55802248 -12.8180413 179.96557838 -12.82992554 175.37683105 C-12.83445665 174.65329799 -12.83898776 173.92976493 -12.84365618 173.18430662 C-12.85629359 170.76538386 -12.85468028 168.34668645 -12.85302734 165.92773438 C-12.85901288 164.19128633 -12.86581848 162.45484094 -12.87338257 160.71839905 C-12.89104399 156.00568555 -12.89573792 151.29304468 -12.89701414 146.58030128 C-12.89891392 142.64623927 -12.90627209 138.71219415 -12.91335833 134.77813864 C-12.92963927 125.49840532 -12.93452743 116.2187108 -12.93310547 106.93896484 C-12.93190306 97.36346238 -12.95302544 87.78818496 -12.9845928 78.21273947 C-13.01072981 69.99181097 -13.0214739 61.77095611 -13.02019465 53.54998636 C-13.0196844 48.63976535 -13.02540285 43.72974447 -13.04655075 38.81956482 C-13.06589061 34.20331361 -13.06608688 29.5874544 -13.05151749 24.9711895 C-13.04942322 23.27686937 -13.05416698 21.58252496 -13.0662384 19.88824654 C-13.08164984 17.57546616 -13.07241152 15.26404455 -13.05697632 12.95129395 C-13.05806585 11.65713814 -13.05915539 10.36298233 -13.06027794 9.02960968 C-11.87178791 0.99406017 -7.28026864 -0.09233556 0 0 Z " fill="#000000" transform="translate(203.5625,-0.6640625)"/>
<path d="M0 0 C0.82830322 -0.00478363 1.65660645 -0.00956726 2.51000977 -0.01449585 C4.25832014 -0.01789283 6.0066942 -0.00870432 7.75488281 0.01220703 C10.42917664 0.03897918 13.09927402 0.01245635 15.7734375 -0.01953125 C17.47396759 -0.01622711 19.17449506 -0.00982078 20.875 0 C21.67301025 -0.01012115 22.47102051 -0.02024231 23.29321289 -0.03067017 C26.94656096 0.04635173 28.94301018 0.19786727 31.64902687 2.74904633 C33.89295574 6.40640569 33.93557771 8.67354493 33.93197632 12.95129395 C33.93680515 13.67482701 33.94163398 14.39836007 33.94660914 15.14381838 C33.95786153 17.56304555 33.94057605 19.98121128 33.92333984 22.40039062 C33.92548618 24.13683864 33.92936459 25.87328526 33.93484497 27.60972595 C33.94453703 32.32256679 33.92923666 37.03502869 33.90893888 41.74782372 C33.89136792 46.67957501 33.89489298 51.6113146 33.8956604 56.54309082 C33.89378745 64.82517841 33.87642449 73.10711942 33.84912109 81.38916016 C33.81767038 90.96460615 33.80712492 100.53989162 33.8085922 110.11538553 C33.80981301 119.32633091 33.79959981 128.53722401 33.78300858 137.74815369 C33.77594759 141.66829333 33.77228275 145.58841448 33.77122116 149.50856018 C33.76921169 154.12474501 33.75699717 158.74079514 33.73688889 163.3569355 C33.73104861 165.05124143 33.72858619 166.74556286 33.72974396 168.43987846 C33.73072614 170.75233907 33.71940695 173.06442297 33.70492554 175.37683105 C33.70157385 176.67098686 33.69822216 177.96514267 33.69476891 179.29851532 C33.44537383 182.56105838 32.95250981 184.77996523 31.4375 187.6640625 C27.41088675 190.1227258 23.2038427 189.90298586 18.625 189.7890625 C17.93212891 189.78003906 17.23925781 189.77101562 16.52539062 189.76171875 C14.82927605 189.73832407 13.13334129 189.70245891 11.4375 189.6640625 C11.54500885 203.00729227 11.65764391 216.35046795 11.77683926 229.69359875 C11.83202386 235.88922037 11.8854368 242.08484674 11.93481445 248.28051758 C11.98252372 254.25869661 12.03486902 260.23681865 12.09044075 266.21492958 C12.11083454 268.49668269 12.12955251 270.77845141 12.14657402 273.06023216 C12.17068381 276.253998 12.20072956 279.4476566 12.23217773 282.64135742 C12.24081093 284.05908195 12.24081093 284.05908195 12.24961853 285.50544739 C12.24087206 291.66230966 12.24087206 291.66230966 13.4375 297.6640625 C14.0975 297.9940625 14.7575 298.3240625 15.4375 298.6640625 C12.1375 298.6640625 8.8375 298.6640625 5.4375 298.6640625 C6.0975 298.3340625 6.7575 298.0040625 7.4375 297.6640625 C8.95878123 292.85275797 8.61240073 287.63711626 8.64282227 282.64135742 C8.65272186 281.63600952 8.66262146 280.63066162 8.67282104 279.59484863 C8.70436065 276.27809997 8.72916371 272.961337 8.75390625 269.64453125 C8.77448228 267.34238822 8.79547893 265.04024892 8.81687927 262.7381134 C8.87203285 256.68339048 8.92147176 250.62863385 8.96972656 244.57385254 C9.0199906 238.3936056 9.07565107 232.21340753 9.13085938 226.03320312 C9.23835884 213.91019802 9.33982206 201.78715044 9.4375 189.6640625 C8.41269531 189.68726563 7.38789063 189.71046875 6.33203125 189.734375 C4.97136149 189.75314286 3.6106838 189.77134197 2.25 189.7890625 C1.57646484 189.80582031 0.90292969 189.82257813 0.20898438 189.83984375 C-3.81294366 189.87908207 -7.0876651 189.78580812 -10.5625 187.6640625 C-12.71939359 183.55802248 -12.8180413 179.96557838 -12.82992554 175.37683105 C-12.83445665 174.65329799 -12.83898776 173.92976493 -12.84365618 173.18430662 C-12.85629359 170.76538386 -12.85468028 168.34668645 -12.85302734 165.92773438 C-12.85901288 164.19128633 -12.86581848 162.45484094 -12.87338257 160.71839905 C-12.89104399 156.00568555 -12.89573792 151.29304468 -12.89701414 146.58030128 C-12.89891392 142.64623927 -12.90627209 138.71219415 -12.91335833 134.77813864 C-12.92963927 125.49840532 -12.93452743 116.2187108 -12.93310547 106.93896484 C-12.93190306 97.36346238 -12.95302544 87.78818496 -12.9845928 78.21273947 C-13.01072981 69.99181097 -13.0214739 61.77095611 -13.02019465 53.54998636 C-13.0196844 48.63976535 -13.02540285 43.72974447 -13.04655075 38.81956482 C-13.06589061 34.20331361 -13.06608688 29.5874544 -13.05151749 24.9711895 C-13.04942322 23.27686937 -13.05416698 21.58252496 -13.0662384 19.88824654 C-13.08164984 17.57546616 -13.07241152 15.26404455 -13.05697632 12.95129395 C-13.05806585 11.65713814 -13.05915539 10.36298233 -13.06027794 9.02960968 C-11.87178791 0.99406017 -7.28026864 -0.09233556 0 0 Z " fill="#000000" transform="translate(131.5625,-0.6640625)"/>
<path d="M0 0 C0.82830322 -0.00478363 1.65660645 -0.00956726 2.51000977 -0.01449585 C4.25832014 -0.01789283 6.0066942 -0.00870432 7.75488281 0.01220703 C10.42917664 0.03897918 13.09927402 0.01245635 15.7734375 -0.01953125 C17.47396759 -0.01622711 19.17449506 -0.00982078 20.875 0 C21.67301025 -0.01012115 22.47102051 -0.02024231 23.29321289 -0.03067017 C26.94656096 0.04635173 28.94301018 0.19786727 31.64902687 2.74904633 C33.89295574 6.40640569 33.93557771 8.67354493 33.93197632 12.95129395 C33.93680515 13.67482701 33.94163398 14.39836007 33.94660914 15.14381838 C33.95786153 17.56304555 33.94057605 19.98121128 33.92333984 22.40039062 C33.92548618 24.13683864 33.92936459 25.87328526 33.93484497 27.60972595 C33.94453703 32.32256679 33.92923666 37.03502869 33.90893888 41.74782372 C33.89136792 46.67957501 33.89489298 51.6113146 33.8956604 56.54309082 C33.89378745 64.82517841 33.87642449 73.10711942 33.84912109 81.38916016 C33.81767038 90.96460615 33.80712492 100.53989162 33.8085922 110.11538553 C33.80981301 119.32633091 33.79959981 128.53722401 33.78300858 137.74815369 C33.77594759 141.66829333 33.77228275 145.58841448 33.77122116 149.50856018 C33.76921169 154.12474501 33.75699717 158.74079514 33.73688889 163.3569355 C33.73104861 165.05124143 33.72858619 166.74556286 33.72974396 168.43987846 C33.73072614 170.75233907 33.71940695 173.06442297 33.70492554 175.37683105 C33.70157385 176.67098686 33.69822216 177.96514267 33.69476891 179.29851532 C33.44537383 182.56105838 32.95250981 184.77996523 31.4375 187.6640625 C27.41088675 190.1227258 23.2038427 189.90298586 18.625 189.7890625 C17.93212891 189.78003906 17.23925781 189.77101562 16.52539062 189.76171875 C14.82927605 189.73832407 13.13334129 189.70245891 11.4375 189.6640625 C11.54500885 203.00729227 11.65764391 216.35046795 11.77683926 229.69359875 C11.83202386 235.88922037 11.8854368 242.08484674 11.93481445 248.28051758 C11.98252372 254.25869661 12.03486902 260.23681865 12.09044075 266.21492958 C12.11083454 268.49668269 12.12955251 270.77845141 12.14657402 273.06023216 C12.17068381 276.253998 12.20072956 279.4476566 12.23217773 282.64135742 C12.24081093 284.05908195 12.24081093 284.05908195 12.24961853 285.50544739 C12.24087206 291.66230966 12.24087206 291.66230966 13.4375 297.6640625 C14.0975 297.9940625 14.7575 298.3240625 15.4375 298.6640625 C12.1375 298.6640625 8.8375 298.6640625 5.4375 298.6640625 C6.0975 298.3340625 6.7575 298.0040625 7.4375 297.6640625 C8.95878123 292.85275797 8.61240073 287.63711626 8.64282227 282.64135742 C8.65272186 281.63600952 8.66262146 280.63066162 8.67282104 279.59484863 C8.70436065 276.27809997 8.72916371 272.961337 8.75390625 269.64453125 C8.77448228 267.34238822 8.79547893 265.04024892 8.81687927 262.7381134 C8.87203285 256.68339048 8.92147176 250.62863385 8.96972656 244.57385254 C9.0199906 238.3936056 9.07565107 232.21340753 9.13085938 226.03320312 C9.23835884 213.91019802 9.33982206 201.78715044 9.4375 189.6640625 C8.41269531 189.68726563 7.38789062 189.71046875 6.33203125 189.734375 C4.97136149 189.75314286 3.6106838 189.77134197 2.25 189.7890625 C1.57646484 189.80582031 0.90292969 189.82257813 0.20898438 189.83984375 C-3.81294366 189.87908207 -7.0876651 189.78580812 -10.5625 187.6640625 C-12.71939359 183.55802248 -12.8180413 179.96557838 -12.82992554 175.37683105 C-12.83445665 174.65329799 -12.83898776 173.92976493 -12.84365618 173.18430662 C-12.85629359 170.76538386 -12.85468028 168.34668645 -12.85302734 165.92773438 C-12.85901288 164.19128633 -12.86581848 162.45484094 -12.87338257 160.71839905 C-12.89104399 156.00568555 -12.89573792 151.29304468 -12.89701414 146.58030128 C-12.89891392 142.64623927 -12.90627209 138.71219415 -12.91335833 134.77813864 C-12.92963927 125.49840532 -12.93452743 116.2187108 -12.93310547 106.93896484 C-12.93190306 97.36346238 -12.95302544 87.78818496 -12.9845928 78.21273947 C-13.01072981 69.99181097 -13.0214739 61.77095611 -13.02019465 53.54998636 C-13.0196844 48.63976535 -13.02540285 43.72974447 -13.04655075 38.81956482 C-13.06589061 34.20331361 -13.06608688 29.5874544 -13.05151749 24.9711895 C-13.04942322 23.27686937 -13.05416698 21.58252496 -13.0662384 19.88824654 C-13.08164984 17.57546616 -13.07241152 15.26404455 -13.05697632 12.95129395 C-13.05806585 11.65713814 -13.05915539 10.36298233 -13.06027794 9.02960968 C-11.87178791 0.99406017 -7.28026864 -0.09233556 0 0 Z " fill="#000000" transform="translate(59.5625,-0.6640625)"/>
<path d="M0 0 C0.66 0 1.32 0 2 0 C2.01030746 1.27928879 2.02061493 2.55857758 2.03123474 3.87663269 C2.12895444 15.92764598 2.23168727 27.97860747 2.33933926 40.02953625 C2.39452386 46.22515787 2.4479368 52.42078424 2.49731445 58.61645508 C2.54502372 64.59463411 2.59736902 70.57275615 2.65294075 76.55086708 C2.67333454 78.83262019 2.69205251 81.11438891 2.70907402 83.39616966 C2.73318381 86.5899355 2.76322956 89.7835941 2.79467773 92.97729492 C2.8004332 93.92244461 2.80618866 94.8675943 2.81211853 95.84138489 C2.80337206 101.99824716 2.80337206 101.99824716 4 108 C4.66 108.33 5.32 108.66 6 109 C2.7 109 -0.6 109 -4 109 C-3.01 108.505 -3.01 108.505 -2 108 C-0.47871877 103.18869547 -0.82509927 97.97305376 -0.79467773 92.97729492 C-0.78477814 91.97194702 -0.77487854 90.96659912 -0.76467896 89.93078613 C-0.73313935 86.61403747 -0.70833629 83.2972745 -0.68359375 79.98046875 C-0.66301772 77.67832572 -0.64202107 75.37618642 -0.62062073 73.0740509 C-0.56546715 67.01932798 -0.51602824 60.96457135 -0.46777344 54.90979004 C-0.4175094 48.7295431 -0.36184893 42.54934503 -0.30664062 36.36914062 C-0.19914116 24.24613552 -0.09767794 12.12308794 0 0 Z " fill="#212121" transform="translate(213,189)"/>
<path d="M0 0 C0.66 0 1.32 0 2 0 C2.01030746 1.27928879 2.02061493 2.55857758 2.03123474 3.87663269 C2.12895444 15.92764598 2.23168727 27.97860747 2.33933926 40.02953625 C2.39452386 46.22515787 2.4479368 52.42078424 2.49731445 58.61645508 C2.54502372 64.59463411 2.59736902 70.57275615 2.65294075 76.55086708 C2.67333454 78.83262019 2.69205251 81.11438891 2.70907402 83.39616966 C2.73318381 86.5899355 2.76322956 89.7835941 2.79467773 92.97729492 C2.8004332 93.92244461 2.80618866 94.8675943 2.81211853 95.84138489 C2.80337206 101.99824716 2.80337206 101.99824716 4 108 C4.66 108.33 5.32 108.66 6 109 C2.7 109 -0.6 109 -4 109 C-3.01 108.505 -3.01 108.505 -2 108 C-0.47871877 103.18869547 -0.82509927 97.97305376 -0.79467773 92.97729492 C-0.78477814 91.97194702 -0.77487854 90.96659912 -0.76467896 89.93078613 C-0.73313935 86.61403747 -0.70833629 83.2972745 -0.68359375 79.98046875 C-0.66301772 77.67832572 -0.64202107 75.37618642 -0.62062073 73.0740509 C-0.56546715 67.01932798 -0.51602824 60.96457135 -0.46777344 54.90979004 C-0.4175094 48.7295431 -0.36184893 42.54934503 -0.30664062 36.36914062 C-0.19914116 24.24613552 -0.09767794 12.12308794 0 0 Z " fill="#212121" transform="translate(141,189)"/>
<path d="M0 0 C0.66 0 1.32 0 2 0 C2.01030746 1.27928879 2.02061493 2.55857758 2.03123474 3.87663269 C2.12895444 15.92764598 2.23168727 27.97860747 2.33933926 40.02953625 C2.39452386 46.22515787 2.4479368 52.42078424 2.49731445 58.61645508 C2.54502372 64.59463411 2.59736902 70.57275615 2.65294075 76.55086708 C2.67333454 78.83262019 2.69205251 81.11438891 2.70907402 83.39616966 C2.73318381 86.5899355 2.76322956 89.7835941 2.79467773 92.97729492 C2.8004332 93.92244461 2.80618866 94.8675943 2.81211853 95.84138489 C2.80337206 101.99824716 2.80337206 101.99824716 4 108 C4.66 108.33 5.32 108.66 6 109 C2.7 109 -0.6 109 -4 109 C-3.01 108.505 -3.01 108.505 -2 108 C-0.47871877 103.18869547 -0.82509927 97.97305376 -0.79467773 92.97729492 C-0.78477814 91.97194702 -0.77487854 90.96659912 -0.76467896 89.93078613 C-0.73313935 86.61403747 -0.70833629 83.2972745 -0.68359375 79.98046875 C-0.66301772 77.67832572 -0.64202107 75.37618642 -0.62062073 73.0740509 C-0.56546715 67.01932798 -0.51602824 60.96457135 -0.46777344 54.90979004 C-0.4175094 48.7295431 -0.36184893 42.54934503 -0.30664062 36.36914062 C-0.19914116 24.24613552 -0.09767794 12.12308794 0 0 Z " fill="#212121" transform="translate(69,189)"/>
</svg>
