<?xml version="1.0" standalone="no"?>
<!DOCTYPE svg PUBLIC "-//W3C//DTD SVG 20010904//EN"
 "http://www.w3.org/TR/2001/REC-SVG-20010904/DTD/svg10.dtd">
<svg version="1.0" xmlns="http://www.w3.org/2000/svg"
 width="512.000000pt" height="512.000000pt" viewBox="0 0 512.000000 512.000000"
 preserveAspectRatio="xMidYMid meet">

<g transform="translate(0.000000,512.000000) scale(0.100000,-0.100000)"
fill="#000000" stroke="none">
<path d="M374 5105 c-89 -19 -160 -59 -230 -129 -71 -71 -110 -141 -130 -235
-21 -99 -21 -4263 0 -4362 20 -94 59 -164 130 -235 71 -71 141 -110 235 -130
99 -21 4263 -21 4362 0 94 20 164 59 235 130 71 71 110 141 130 235 21 99 21
4263 0 4362 -20 94 -59 164 -130 235 -71 71 -141 110 -235 130 -95 20 -4274
19 -4367 -1z m428 -1534 c3 -1224 3 -1230 24 -1257 44 -60 67 -69 185 -72
l109 -4 0 -959 0 -960 -349 3 c-335 3 -351 4 -377 24 -15 11 -37 33 -48 48
l-21 27 -3 2112 c-1 1162 0 2126 3 2144 7 40 49 91 90 109 21 9 83 13 207 14
l178 0 2 -1229z m1280 0 c3 -1224 3 -1230 24 -1257 44 -60 67 -69 185 -72
l109 -4 0 -959 0 -959 -480 0 -480 0 0 959 0 959 109 4 c118 3 141 12 185 72
21 27 21 33 24 1257 l2 1229 160 0 160 0 2 -1229z m1280 0 c3 -1224 3 -1230
24 -1257 44 -60 67 -69 185 -72 l109 -4 0 -959 0 -959 -480 0 -480 0 0 959 0
959 109 4 c118 3 141 12 185 72 21 27 21 33 24 1257 l2 1229 160 0 160 0 2
-1229z m1364 1203 c15 -11 37 -33 48 -48 l21 -27 0 -2139 0 -2139 -21 -27
c-11 -15 -33 -37 -48 -48 -26 -20 -42 -21 -377 -24 l-349 -3 0 960 0 959 109
4 c118 3 141 12 185 72 21 27 21 33 24 1257 l2 1230 189 -3 c173 -3 192 -5
217 -24z"/>
</g>
</svg>
